<svg xmlns="http://www.w3.org/2000/svg" version="1" width="800" height="600"><g clip-rule="evenodd" fill="#97bf0d" fill-rule="evenodd"><path d="M164 240zM168 258v1l1 3v-1-1h-1v-2zM170 264h-1l1 3v1h1v2l1 3-2-9zM179 294h-1v2l1 1v-3zm0 3v-1 1zM182 311h-1 1zM185 315h-1v1l1-1zM184 316h-1 1z"/><path d="M174 280h-1v-1l-1-2 1 2 1-1-2-5v1h-1v-3l-1-3-1-2-1-3v-1l-1-5-1-4v-2l1 4v1l1 1v-1l-2-8-1-3-1-4c0 1 0 0 0 0v-1l-1-2v-2l-1-1v-1-1h-1v-1l-1-2-2-4-3 2h-1v1l-1 2v1 18l1 2v6l1 2v5h1v3l1 4 1 5 2 7 1 7 2 4v1l1 3 1 3 1 3 1 3v1l1 1 2 4v1l1 2 2 3 1 4 2 2 1 2 3 3v3l1 3h-1l1 2v2l2 1h1l-1-5h2l-2-4h1v-2l1-1v-1l1-8-1-5h-1v4l-1-2v1-3-3h-1v-1l-1-1h-1v-2l1 2h1l1 2 1 1v-2c-2-3-2-7-3-10l-1-2v-1-1l-1 1-1-3-1-2v-2l-1-2v-3h-1v-3h1l-2-3 1 3-1-2v-1-1zm-9-32v-1 1zm0 1v-1 1zm1 2v-1 1zm6 26v-1 1zm8 24v1l1 1v3l-2-6h1v1zm-11-1a189 189 0 0 1 0 1l-1-1h1zm2 0h-1 1zm-2 2v-1 1zm2 0s1 0 0 0zm-2 2l1-1-1 1zm11 2h-1 1v1h-1v-2-1l1 2zm1 2v-1 1zm0 0l-1-1 1 1zm1 2l-1-2 1 2zm-1 0zm-9 1v2h1l-1 1-1-4h1v1zm9 2v1l-1-1h1zm0 1s-1 0 0 0zm-8 0v-1 1zm0 1v-1 1zm1 0v-1 1zm8 1l-1-1h1v1zm-9 0h1l-1-1v1zm8 0zm-7 1v0zm3 1h-1v-1l1 1zm1 1h-1l1-1v1zm-3 0h-1v-1l1 1zm8 1v-1 1zm1 0h0zm-1 3v-2 2zm-1 8l-1-1 1 1zM176 285h-1 1z"/><path d="M177 288l-1 1h1v3l1 1-1-5zM178 293v1h1l-1-1z"/></g><g clip-rule="evenodd" fill="#97bf0d" fill-rule="evenodd"><path d="M274 497l1 1-1-1zM321 505zM325 506h1v1l-1-1zM262 539h1l-1 1v-1zM333 512l1 1h-1v-1zM383 519v0z"/><path d="M236 496h1l1 2h1l6 1 1 1 3 1h2l1 1 3 1h3l2 1 5 1h6l2 1h1l1 1h2l2 1v-1h1l6 1h1l4 1 1-1v1h1l4 1h5v1l3-1v1h4l4 1 1-1 2 1h5l1 1 1-1 1 1h6l1 1 4 1v-1h1l2 1h3v1h4l4 1h1l1-1v1h6c1 0 1 0 0 0h4v1h1l3 1h4l4 1h5l1 1v-1h1v1h4l1 1 1-1 3 1h11l2-1h1l-1-1-1 1-1-1h-1l-1-1-3 1v-1h-1-1-3-1l-3-1h-3-2l-2-1h-7l-2-1h-2-1-1l-2-1-1 1v-1l-1 1-2-1h-2l-1-1-1 1-2-1h-4l-6-1-3-1h-1-1-2-2l-5-1-2 1v-1h-3v-1h-1-1l-3-1h-1-4-3l-1-1-1 1-2-1h-2l-1-1h-1v1l-2-1-3-1-2 1-1-1h-2l-3-1h-2-1-1l-1-1c0 1 0 1 0 0l-1 1-1-1h-1-1c-1 0 0 0 0 0l-1 1v-1h-1l-1-1c-1 0 0 0 0 0h-1-1-1-1l-1-1-1 1c0-1 0 0 0 0l-1-1c-1 0 0 0 0 0h-3l-3-1h-1-1l-2-1h-3l-1-2-2 2-1-2-1 1-4-2h-1-1-1-1l-2-1h-4l-2-1h-1l-1-1-1-1v1l-1-1h-2l1-1h-1l-4-1v-1l3-2v2l2 1h8v-1h5l2 1h6l2 1h3l3 1v-1h1v1h6l2 1h5l2 1h5l3 1h5v1h6l3 1h4l5 1h3l1 1h5v1h3l-1 1 2 1v1h-1l-1-1h-1-2-3v-1l-1 1-1-1h-5l-2-1-2-1v1h-1-1v-1h-6l-3-1h-1l-1 1-2-1h-1l-1-1h-2-1-1l-1-1-1 1-1-1-1 1-3-1-1-1v1h-1l-3-2-2 1v-1l-1 1-1-1h-5l-2-1-4-1h-2-10-1l-1-1-4 1h1l1 1h4l3 1h6l1 1h1l3 1h8l1 1 3 1h4v1l1-1 1 1 1-1 2 1 3 1h3l4 1h3l2 1h4l3 1h4l2 1h1v-1l3 2 1-1 1 1h5v1l3-1 1 1h1l1-1h1l2 1h1l1 1h4l2 1h4l3 1h2l4 1v-1l4 1h2s0 1 0 0v-1l1 2h6l2 1h4l1 1v-1l3 1h1l2-1v1h1l1 1 6 1 2-1 1 1h3l1 1h4l5 1 2 1h2l1-1 1 1c1-1 0-2-1-2l1-1h-1v1l-1-1-1-1-1 1-1-1h1l-1-1v1h-2l-2-1h-4v-1h-4l-3-1h-2-1l-5-1h-2-1l-1-1h-4l-1-1-1 1-6-1h-1l-2-1h-2-1-1-3-1l-3-1-4-1-3-1v1l-2-1v1h-3l-2-1h-2-2v-1h-2s1 0 0 0c0 1 0 0 0 0h-1-1v-1h2l-1-1h10l2 1h6l3 1h4l3 1h5l3 1h5v1h5l1 1h4l1 1h4l3 1h5l2 1h2l1 1h4v1h3l2 1v1h2l1 1v4l-1 1-1 2-5 1h-10-5-3l-3-1h-4-1l-2-1h-4-1l-2-1h-3-1l-1-1h-3-1-1-2c0-1 0-1 0 0l-1-1h-6l-1-1h-3-3l-2-1h-1l-7-1h-3-2l-3-1h-5v-1h-2-1-1-2-1-1-2l-2-1h-4l-1-1h-5l-3-1h-1-1l-2-1h-7l-2-1-3-1h-2l-4-1-7-1h-1c-1-1-2-2-3-1l-2-1h-1l-1-1h-3l-1-1-4-1-1-1h-2c0-1 0 0 0 0l-1-1-2-1-2-2zm89 11h-1 1zm78 10v-1 1z"/></g><path d="M453 474l-1 1 2-1-1 1-2 1-1 1h-1l-4 1h-1 1l-3 1v-1h-1-1l1 1-1 1v-1-1s0-1 0 0l2-6 1-1 6-8 9-9s0-1 0 0l5-5 2-1 4-5 1-1 6-5 3-3h1l5-5 5-5 1-1 2-1 1-1 1-1 1-1 2-1v-1h1l6-6 10-8 2-2 2-1 2-1h1l1-1h1l3 1v6l-5 6-1 1h-1v1l-4 3-2 3-3 2c0 2-2 2-3 4l-1 1h-1l-3 3s0 1 0 0l-2 3h-1s0 1 0 0v1h-1l-4 3-1 1-3 4-1 1h-1l-2 1-1 1-1 2-1 1-3 2-2 2-1 1-1 1-4 4-1 1-3 2-1 1-1 1-4 4-1 1-3 3-4 3-2 1zm-6 3l2-1h-2v1zm3-1l1-1-1 1zm12-15z" clip-rule="evenodd" fill="#97bf0d" fill-rule="evenodd"/><g clip-rule="evenodd" fill="#97bf0d" fill-rule="evenodd"><path d="M453 401h-1 1zM423 411h-1l-2 1-4 1 2-1 5-1zM413 414h-1 1zM411 414l-3 1 3-1zM395 417h-1l-1 1c0 1 0 0 0 0h2v-1z"/><path d="M370 415l2-1-1 1h-1 3l2-1v1c0 1 0 0 0 0h-1v1h-1-1l1-1-2 1-1 1v-1l-1 1h-1l-4 1h-3l-1 1h-5l-4 2 3 1h1v1h3l-2 1h11l1-1h3l4-1h4l2-1h1c2 0 4-2 5-1l2-1-1-1 1-1-1 1h-4l-3 1v-1l-2 1h-2l-3 1-4 1 1-1 2-1c1 0 1-2 2-1l1 1 1-1 4-1h5l5-1 2-1 1 1h2c1 0 0 0 0 0v1l1-1h4c2 0 4-2 5-1l1-1c1 0 4 0 5-2h1l-1 1h1l3-2v1l3-1 3-1h4l3-1h2l2-1 1-1h3l2-1h1l-2 1 3-1h-1l2-1c1 0 0 0 0 0h1l2-1v1l4-2c0-1 0 0 0 0v-1 1l3-2 2-2 6-3 3-1c1-2 2-4 5-5h1v-1l-2-1-2 2h-2l-1 1h-5l-4-1h-1-1-1l-4 1h-5l-7 2-7 1-3 1-1 1-8 1-4 2-5 1-3 1-6 1h-1l-6 2-5 1-3 1-1 1v-1l-4 2h-1l-5 1v1l-6 1-3 2-1-1-8 3c-2 1-3 3-3 5h1l4-2h3l3-1v1h1l3-1h2l1-1 2-1zm91-20h0zm-6-1v-1 1zm-5 8zm-7-6h-1v-1h2l-1 1zm3 7h0zm-5-7zm-4 0c0 1 0 1 0 0zm-2 1h0zm-1 2h1-1zm-1 1zm-6-1h0zm-1 1h-1-1l1-1h1v1zm-3 1s0-1 0 0l-1-1h2l-1 1zm-1 0h-1 1zm-1 1h-2l1-1v1h1l-1-1h1v1zm-4 2v-1h1l-1 1zm-2-1h-2l2-1v1zm-3 0h-1 1zm-3 0h0zm0 2h0zm-1-1l-2 1h-2l4-1zm-5 1h0zm-2 1h0zm0-1c0 1 0 1 0 0zm1 2l-2 1h-1l1-1h2zm-2-1l1-1v1h-1zm-2 1l1-1h2l-3 1zm-3 1h1-1zm-1 0h1-1zm-2 0v-1h1l-1 1zm1 1l-1 1h-1v-1h-1l2-1 1 1zm-3-1h-1 1zm-2 1h1v1h1l-2 1h-1c1 0 1 0 0 0l2-1v-1h-1zm-4 3l-1 1h-2 1-1l-4 1h-1 1l2-1v1l2-1v-1l-2 1s0-1 0 0h-2l2-1 1-1 1 1 1-1v0h1c-1 0 0 0 0 0v-1h1l-1 1c1 0 0 0 0 0h1l1-1v1l-1 1c1 1 3-1 1-1v-1l2-1v1h-1v1l1-1v1h-1 1l-3 1zm-1 4h0zm-7-3v1-1h0zm-3 0v-1h2l-2 1zm2 2h0zm-9 1v-1 1zm-1-1v-1 1zm-2 1h0zm-1-1h0z"/><path d="M441 406l1-1h-1v1zM427 410h-1 1zM407 415l-3 1 3-1zM396 417s0 1 0 0v0z"/></g><g clip-rule="evenodd" fill="#97bf0d" fill-rule="evenodd"><path d="M409 295h1l2 1c1 1 2 2 1 3-2 2-3 1-4 1l-1-2v-2l1-1zM396 305v1l-1 1-1 1-1 1-2-1 3-2 2-1zM389 313s1 0 0 0zM333 363h1l-1 1v-1z"/><path d="M331 365h1s0 1 0 0v-1l1 1v-1l2-1h1l1-1v1l2-2h1v-1h-1 1l2-1h-1l1-1v1l2-1v-1h2l2-2 2-1v-1-1h1c1 0 2-2 3-1l1-1 1-1 3-2h1v-1l2-1 5-4 1-1 3-2v-1l3-2 1-1 1-1h1l1-1 2-2h1l-1-1h1l3-2 1-1 2-2h1l-1-1h1l3-2 1-1 1-1 1-1 4-4 1-1v-1h1v-1h1l1-4 1-2h-1l-2 3h-1l-2 3-2 2-1-1h-1v-1l1-1 1-1 5-5c2 0 3-2 4-3h1l2-3 1-1v3l1 1-3 2-1 3v1l-1 1-1 2-2 4h-1c-1 3-4 5-7 8l-3 2-2 3c-2 0-2 1-3 2l-1 1-2 2-21 17h-1l-3 2-6 5-3 2-5 3-5 4c-1 0 0 0 0 0l-5 2-1 1-3 1h-1l-2-1 1-2-1-1v2l-1-1h1l-1-1v-2h1l3-6 4-3 5-5c3-2 7-4 9-7h1l12-10 5-4 9-8 3-1v-1l14-10v1l-1 1-2 2 1 1h-1c-1-1-3 1-3 1l-2 1-2 3-2 1h-1l-4 4-2 2h-1l-3 2-1 2s-1 0 0 0l-2 1-2 2-1 1-2 1s0 1 0 0l-2 2-1 1-2 1v1h-1l-2 3-2 1h-1l-1 1v1h-1l-1 1 1 1s-1 0 0 0h-2l-1 1h-1v1l-2 2-1 1h-1l-3 2-2 2-1 1-1 1-1 2h-1l-2 1v1l1 1v-1h1v-1 1l4-3 3-2 5-4 2-2 2-1 3-2v-1h1c0-2 2-1 2-2l2-1 2-2 1-1 2-2 3-2 2-1v-1h2l3-3 1-1 5-4 4-3 3-3v-1l8-6v-1h1l1-1h1l1 2h-2 1c-1 2-4 3-4 5h-1l-2 2-1 1-2 2-2 2h-1l-6 5-3 2v2h-1v-1l-1 1-2 2h-1v1l-1 1-4 2-1 1-4 3v1l-3 2c-1 0-2 2-3 1l-2 1-2 2-1 1-1 1h1l-1 1v-1l-2 1c-2 2-3 4-6 5v1l-5 2v1l-1 1 1 1v-1zm72-61h1-1zm1 2v-1 1zm-1 1v0zm-1 2h1-1zm0 1zm-1 1zm0 1h-1 1zm-1 2v-1 1zm-73 50l1-1h-1-1l1 1zm-1 1v-1h-1l1 1zm4 0zm0 1v-1 1zm0 0z"/></g><path d="M785 380c0-1 0 0 0 0l-1-1h-4l-4-1h-4l-6-1-5-1h-1-6l-4-1h-4c-1-2-4 0-6-1h-2l-3-1v1l-3-1h-6l-5-1h-5l-5-1h-3-1-1-1l-2-1h-7-4l-1-1h-6l-6-1h-3c0 1 0 0 0 0l-1 1-1-1s0 1 0 0l1 4h5l1-1 1 1h2l1 1h10l1 1h3l1-1 2 1h8l4 1h1l1 1 4-1 3 1h2l6-1 2 1 3 1 1-1 1 1h5l4 1h8l1 1 2-1 7 1h6l1-1v1l1 1h11v1l1-1v1h-1-1 2l-2 1h-12l-5-1h-8l-4-1h-2l-15-1h-5l-15-1-27-2-6-1h-1l-16-1-16-1-2-1h-9l-12-1-19-2v-1h-9v-1 1l-15-3-4-2h-1l-1-1-1-1-2-1 1-2v-1-1-1h2c0-2 2-1 2-2l6-1 3 1h13l6 1 2-1v1h16l1 1h2l19 1 2 1v-1l4 1h8l2 1h1l4 1 1-1h1l5 1h11l2 1h9l4 1h4l10 1h1c0 1 0 0 0 0h1l1 1h5l8 1h1l8 1h6l1 1 14 2c10 2 21 4 28 9h-3c0 2 2 2 2 3h-1l-2 1h-1v-1h-1zm-23-9l-5-2h-2-5l-4-1h-1-1l-6-1h-3-1l-2-1-1 1-2-1h-1-5l-1-1-1 1h-2l-4-1h-3l-3-1-11-1c0 1 0 0 0 0h-4-5l-6-1h-7-1-1v2l5 1h7v1h12l1 1h9l3 1h7l3 1h7l8 1h1l2 1 1-1v1h3l4 1h5l2 1v-1l3 1h8v1h2l8 1 4 1 1-1v1l1-1v1h4l-1-1h-1-1c1 0 0 0 0 0-2-1-3-2-4-1l-1-1h-5v-1l-6-1h-4zm24 5zm1 3zm-153-18v-1 0c-2 0 0-1-1-2l-1 1-3-1-5-1h-6-1c0 1 0 0 0 0h-1-1v0h-8v-1h-1-9-1-3l-3-1h-6-2-1l-2 1h-1l2 1 2 1h5l2 1h3v-1 1h9l2 1 1-1 1 1 1-1 6 1h2l1-1v1l1-1v1h1l1-1v0 1h4l1-1h1v0l-1 1v-1l-1 1h7l1 1v-1 1h2l2 1 1-1s-1 0 0 0v-1h1v1h1l3 1h9l1 1v-1l4 1h6l3 1v-1l2 1h1s1 0 0 0v-2l1 1 1 1v-1-1l1-1h-1-1l1 1h-1v-1l-1 1-2-1h-1-1l-2-1-2 1-3-1-1 1v-1h-4l1 1h-2v-1l-1-1v1h-3-1v-1 2h-1a66 66 0 0 1 0-1l1-1h-1l-1 1v-1l-1 1v-1 0l-1 1v-1 0h-1-1l1 1-1-1-1 1v-1l-1 1 1-2-2 1h1-1l1 1h-1v-1l-1 2zm36 1v-1 1zm3 2h1v-1l-1 1zm-5 0v-1 1zm-1 0v-1 1zm-5 5h1v-1l-1-1-1 1-1-1h-1l-1 1h-1v1l-1 1h5v-1h1zm2-1v1h1v-1h-1zm6 2v-1h-1l-1 1h1l2 1v-2l-1 1zm-15-3h-1 1l-2 1-1-1h-1-1-1l-2-1v0l-1 1s0-1 0 0h-1v-1h-1v0h-2-2c0-1 0 0 0 0v-1l-1 1v-1l-1 1v-1 1l-1-1h-3l-5-1-1 1-1-1h-5l-2-1h-1v1l-4-1h-4-3v-1h-8l-1-1-2 1s-1 0 0 0h-1v1-1l-2-1-1 2v-2h-3-1-1l-1-1h-1l-2-1h-1-1-1s-1 0 0 0h-3 0v1h2v-1 2h1l3 1 3 1 2-1 1 2h2v-1l1 1 1-1h-1 2l2 1v1h5v-1l2 1h5l3 1h6l3 1h7v1h4l1-1 2 1h6l2 1v-1h2l2 1h2v1l2-1v1h4l1-3h-1zm-61-3v-1 1z" clip-rule="evenodd" fill="#97bf0d" fill-rule="evenodd"/><g clip-rule="evenodd" fill="#97bf0d" fill-rule="evenodd"><path d="M325 406h-1 1zM217 368v-2h1l1-1h3v1l1 1v-1-1h1v2h1l1-1 1 1v1l2-1 1 1h5v1l3-1v1h3l6 2 6 2 33 11 5 2h1l8 4 3 1 5 2 6 3 2 2h1l1 1 1 1 1 1 1 1v1l1 1v1h1v1h-1a70 70 0 0 1-17-1h-1c0-1 0 0 0 0l-11-4-10-3-3-1-2-1-6-2-11-3-14-5-21-8-2-1v-1h-1l-3-2c-3-1-4-3-5-4v-3h1v1h1zm31 4h1l-1-1v1zm-18-3v-1 1zm-8 0v-1l1 1h1v-2l-2 2zm-7 0h1v-1l-1 1zm6 2l-1 1h2l-1-1z"/></g><g clip-rule="evenodd" fill="#97bf0d" fill-rule="evenodd"><path d="M157 29zM158 30h1l-1 1v-1zM148 26l-1 1c-1-1-3-2-2-3l3 2zM184 53c1 0 0 0 0 0zM184 52v0zM186 61l-1 1s0-2 1-1zM188 63h-1 1zM186 62h0zM189 63v1l-1 1v-1l1-1zM185 62l-1 1v-1-1l1 1zM228 93v1h-1l1-1zM231 96v1l1 1-1-2zM209 83v0z"/><path d="M229 92v1s0-1 0 0v-1h-1l-3-2v-1h1l-1-1h-1l-4-5h-2v-1l-4-3c0-1 0 0 0 0l-1-1-2-2-1-2-3-3-3-2-1-2-2-1v-1h-1v-1s0 1 0 0l-2-1h-1v-1l-2-1v-1l-3-3h-1v-1l-2-1-1-1-2-1v-1h-2v-1l-2-1-1-1-3-2v-1l-2-1-1 1 1 1 2 3h1l4 3v1h2v1h1v1l1 1 1 1 1 1 1 1 2 2c0 1 3 1 3 3h1v1l2 1h1v1l3 2 1 2 2 2 1 1h1l1 3 3 2 2 1 1 2 2 1 2 2 3 3 1 1 2 2 1 1h1l4 6 1-1c1 1 2 0 2-1v2l-1 1-3 2v-1 1h-1l-5-2-5-3-4-4-2-1v-1l-3-2-2-2v-1h-2l-3-3-4-4-6-5-2-3c-2 0-3-2-5-3h0l-4-4-2-2-1-1-2-2-1-1-4-4-1-2h-1l-2-3h-1l-7-6h-1v-1l-4-4-1-1-1-1-1-1v-1l-1-1-1-2 1 1v1h2v1l3 2 1 2 1 1h1v1h1v1s0-1 0 0c-1 0 0 0 0 0h2v-1h1l1 1v-1h-1c1 0 0 0 0 0v-1h-1l-3-3v-1s0 1 0 0h-1l-3-2v-1l-2-1-2-2-1-1 1-1v1h1v-1l-2-2h-1-1v-1l-2-1-1-2h-1l3 1h4l2 1h1l10 7 6 6 3 2 1 2c1 2 2 3 4 3v1h2v1l5 3 2 1 4 4 9 7 1 1 1 2 4 3h1l5 5 3 4 2 2 3 2v1h1l2 3 2 1v1l2 2 7 9v1l-1-1s0 1 0 0h-1l-1-2v1l-1-1-1-2h1zm-73-65l-2-1c-1-1-2-2-3-1v-1l-2-1-1 1h2l-1 1h1v1l3 2h1l1 1v1l2 1 1 1 1-1v1l2 2h1l2 2 3 3 5 4 3 3-1-1-1-1-1-1v-1l-1-1-1-2-1-1-1-1h-1l-1-1-1-1h1-1c0-1 0 0 0 0l-1-2-2-1-3-3-2-2h-1zm-9-3h0zm5 4c-1 0 0 0 0 0zm0 1c1 0 0 0 0 0zm-1 0v-1 1zm11 13l1 2 2 1 1 2h1l1 1v-1c2-1 1-2-1-3h-1l1-1-2-1-1-1v0h-3-1l2 1zm9 5c-1 0-1-2-2 0l2 1-1 2 1 2h2v1l3 3 1 1h1l1 1 3 3 1 1 1 1 1 1h1l1 1 1 1 1 1 1 1 1 1h1v1l2 1 1 1h0l2 2 1 1s0-1 0 0l2 2h1v1l4 3 1 1 5 4 1 2 2 1 1 1 1 1 1 2h1l1 1h1l3 3 1 1 2 1 1 1h1l-1-2v-1-1l-1 1-2-3-3-2c-1-1-3-4-5-4l-2-3h-1l-3-3-2-2-2-1-3-3-2-2-1-1-2-2-3-3h-1l-3-4h-1-1v-1l-2-1h1l-2-1h-1v-1-1l-2-1-2-2h-1l-2-2c1 0 0 0 0 0v-1l-2-2-3-1v-1l-2-2zm-19-12h1s-1 0 0 0h-1zm72 58v-1 1zm3 5h0z"/></g><g clip-rule="evenodd" fill="#97bf0d" fill-rule="evenodd"><path d="M544 446h0zM580 456v1-1zM579 461v0zM612 472h-3 3zM604 471l1 1h-1v-1zM606 472l-1 1 1-1z"/><path d="M549 445v1s0-1 0 0v-1l1 1v1c2 0 2 2 4 1l3 2h2l1 1h3v1l6 2h2l3 1 1 1v-1 1h1l5 2h1c1 1 2 2 3 1v1l2 1 3 1h2l2 1h1l2 1h1l2 1 2 1 1-1v1h1l1 1v-1h2v1l3 1c1 0 1 2 3 2l-1 1h-4v1h-2-1v-1h4l-1-1h-1l-2-1-5-1-2-1h-1l-1-1h-2l-5-2-1-1v1h-1v-1c-1 1-1-1-3-1l-3-1-5-2-3-1-3-1v-1c-3 0-5-2-7-3h-1l-4-1-2-1-2-1-4-1v1-1l-3-1-1-1-1 1h1l1 1 2 2 1-1s0 1 0 0l1 1v1l4 2 1-1 2 2 4 1h1l2 1v1h2v1h4l2 2v-1l3 1 1 1 2 1 5 1v1h2l2 1h1l2 1 3 1 1 1h3l2 2h4l-1 1h-1-1l-2-1h-1l-17-5-6-2v-1h-1l-1-1-3-1h-1l-3-1-4-2-2-1h-2l-2-2-7-2-4-3-1-3h2l-1-2v-1h1c1-2 3-1 5-1l4 1 26 8 6 3h1l17 8 3 3-1 1-1-2-3-1-3-1-1-1-3-1-2-1-4-1-1-1h-1l-1-1h-1-2l-3-1-2-1v-1h-1l-3-1c-1-1-3 1-3-1h-1v-1h-1-1v-1l-4-1h-1l-2-1h-2l-1-1-4-1h-4l-1-1h-1zm-2 0h1v1h1l-1-1h-1zm62 24z"/></g><text transform="matrix(2.6688 -.32953 .31722 2.73916 -972 -293)" y="327" x="395" style="line-height:125%;-inkscape-font-specification:'Delicious Bold'" font-weight="700" font-size="16" font-family="Delicious" letter-spacing="0" word-spacing="0" fill="#97bf0d"><tspan style="-inkscape-font-specification:'Delicious Bold'" y="327" x="395">Cevi Züri 11</tspan></text><g clip-rule="evenodd" fill="#97bf0d" fill-rule="evenodd"><path d="M266 324c0-1 0-1 0 0zM187 435h1v1l-2 4v-1-1 1-2l1-2zM185 439v0zM260 328h1l-1 1-5 7c-2 0-2 2-3 3l-2 2v1l-5 5v1l-3 4-1 2-2 3v1l-1 1-1 1v1h-1l-2 2v2l-2 2-2 3-2 3-2 2v2h-1l-2 3-2 3-1 2c-1 2-3 3-3 5h-1l-2 4-1 1v1l-1 2-2 2-1 1-5 6v1l-1 1v2h-1v1l-2 2-7 11-1 3h1l-2 1s1 2 2 1v-1-2h1l4-5h1l4-7 1-1 3-4v-1l2-2 1-1 1-2 1-3 1-1 1-1h1l1-2 1-1v-1h1l1-2 1-2 3-4v-1l6-8v-1h1c0-2 2-3 3-5s3-3 3-5l1-1 2-3 3-4c1-1 3-3 3-5h1l5-7v-1l3-4v-1l2-2 1-1c1-1 3-3 3-5h1l2-3 2-3 1-2 1-1-1-1 2-1 2 2v1h1l-3 9v1l-14 20c-4 5-7 9-9 14l-4 6-4 5-1 2a224 224 0 0 0-10 15c-3 5-7 9-9 14l-11 12v1h-1v1l-2 2-2 1-1 1-2 2-1 1v-1l1-1 2-2v-1l3-2 2-3 4-5 1-2 5-7 3-3v-1l2-3 2-2 2-4 2-1v-2h1v-1l2-2 3-6 3-3 5-8 1-3 1-1 4-5v-1h1l2-5 3-3v-1l2-2v-1h1l1-2v-1c1-1 3-2 3-4h-2l1-1 1 1 1-1 1-1 3-5 2-3v-1l1-2 2-3v-1-1h1l-1-1-1 1v1l-1-1v2l-2 3-2 3-2 1v1l-4 6v1h-1v1l-3 4h-1v1l-1 2-1 2c-1 1-3 2-3 4-1 2-3 3-3 5l-3 4-2 2-2 3v1h-1v1l-2 3h-1v1c-1 1-3 3-3 5l-1 1-1 2-3 5-1 1-1 1v1l-2 2v2l-2 3h-1l-1 1-2 3v1l-2 1c0 2-2 4-3 5v1l-3 3-1 2-1 2-5 5s1 0 0 0l-1 2-1 1v1l-2 2-1 1h-1l-2 2-2 3h-1v-2-3-1l7-12v-1c1 0 0 0 0 0l4-5 2-3 3-5v-1l4-5 1-3 6-8 13-19 2-3 3-4 8-11 4-5v-1l4-5 1-1v-1l2-1 4-4v-1l3-2z"/></g><g clip-rule="evenodd" fill="#97bf0d" fill-rule="evenodd"><path d="M225 445v-1h-1l1 1zM224 449zM225 463h-1 1zM168 414l-1-1v1h1zM156 438v0zM126 471zM120 478h-1 1zM96 361h-1 1zM95 360l-2-2-2 1h-1l-1 1h1v1h1l-1 1 1 1 2-2h1v-1h1zM99 395zM99 394h-1 1zM102 410h-1-1v1h2v-1zM101 409zM93 363v0zM96 421h-1l1 1v-1zM65 533v-1 1z"/><path d="M204 497l-11-2h-17l-9 1-16 2-1 1c-4 0-9 0-14 2l-6 1-5 1-11 3-1-1-1-2v-11-1-4l1-1 1-2-2 2 2-3v1l4-4v-1l-1 2-1-1 2-2 1 1v-1l1-1 1-2h1l1-1-1 1 1-1v-1 1l1-1h-1l2-1-1 1 1-1 1-1 2-2v-1h1c-1-2 2-2 2-3l-1 2 2-2 2-3v0h1l1-1 1-1 1-2h1l1-2h1l2-3 1-1 1-1 1-1v-1h1v-1c1 0 0 0 0 0h1l1-1h-1l1-1 1-2h2l-1-1h1l1-2 1-1 1-1 1-1v-1h1v-1h1v-1h1l2-4 1-2 1-1v-2l1-1 1-2h-1l1-2 1-1h1l2-3h-1l-1-1-4 2-3 2-2 1h-1l-2 1-1 1-4 3-2 2-2 2-3 3-2 1v1l-3 2-2 2v1h-1l-1 1-2 3-2 2-2 1-1 1-2 3h-1l-1 2-1 1h-1l-1 2-4 4-2 1h-1-2l-1-4v-2l-1-3v-1-7h-1v-5-6l-1-7h-1v-12l-3-20-1-5v-6l-1-3a58 58 0 0 0-3-15l-2-3h-1l2 2v1h-1l1 2v2l1 1h-1c0 2 2 4 1 5v3l1 3v2l1 3v8l1 1v2l-1-1h-1c-1 0 0 0 0 0-1 0 0 0 0 0h-1s1 0 0 0l-1-1v-1-3-1-1-3c-2-1-1-4-2-6v-4l-1-1v-3-1-3h-1v-3l-1-1-1 1 1 3v9l1 3v7l1 3v3l1 6-1 1h1v1l1 2-1 1h1l-1 1 1 1 1 4-1 2v2l1 1h-1l1 3v3l-1 1h1l1 1-1 2 1 3v5l1 1-1 1h-1v-1-1-1l-1-2v-1l-1-3h1l-1-2v-2-1l1-1h-1v-2l-1-3v-8l-1-1v-1-8c-2 0-1-2-1-3v-4l-1-1v-1-1l-1-2v-1-4h-1v-2l1-1-1-2-1-2 1-1v-2l-1-1v-1-2l-1 1v10l1 11 1 4v4l1 2v4l1 7v5l1 5v4l2 11 1 1v13l1 10v8l1 1v12l-2 3-2 2-2 2-3 3c0 2-2 3-3 4l-1 1c-1 1-1 2-3 2l-2 3-1 1-2 2-1 2-1 1-3 4-2 2-2 3h-1l-6 8-1 1v2l-1 1-1 1-1 3 1 1c-1 1 0 2 1 3h1l4-1 3-1 2-2h1l-1-1h1l1-1c1 0 0 0 0 0h1v-1 1l1-1 3-3v-1 1l1-1 4-3 1-2 2-2 1-1 1-1v-1 1l5-5 1-2c2 0 2-1 3-2l3-3 2-2h1l1 11-2 2h-1l-1 2-3 1-1 1-3 4-3 2-2 1-5 2v1l-2 1h-1 1v1l3 1-1 1 4-2h8l13-2 1 1 1-1 1-1 3-1 12-3 2-1 8-2a201 201 0 0 1 12-3l10-2 5-1 11-3 15-2h-3 4c1 0 0 0 0 0h3l5-2 3-1c1 0 0 0 0 0h5m-11 2h0zm-1 0h1-1zm-20 2h0zm-4 2l-1-1h1v1zm-1 0v-1 1c0-1 0 0 0 0zm-3 0h1-1zm-2 1h-1 1zm-3 0h0zm-1 1h-3v-1h3c0 1 0 0 0 0v1zm-6 1h1l1-1h1l-3 1zm-3 0h0zm0 1s1-1 0 0zm-2 0h-1l1-1v1zm-3 0h1v1h-1l1-1h-1zm-3 1l-1 1h-1l2-1h2-2zm-2 1zm-10-50v0zm8 50v0zm-1 1h-1l1-1v1zm-4 1l1-1-1 1zm-1 0v-1 1zm-2 1l1-1v1h-1zm-2 0h-1l-1 1h-2 2l2-1zM99 376h0zm2 24v1c-1 0 0 0 0 0v4h1v1l-1 1 1 1h-1-1v-1c0 1 0 0 0 0h-1v-1-1h0v-1-2l-1-1 1-1v-1l-1-1h2v1h1v1zm14 82v-1l1 1h-1zm-12-70v2h-1v1h0l1 1v3s0 1 0 0v1l1 2-1 1h1v6l-1 1 1 1c0-1 0 0 0 0v2h1v5h-2c-1-1 0-1 1-1h-1l-1-1v-1-1-3l-1-1 1-2-1-1v-3-1-3-1-2h-1v-2-1-1-1-1l-1-1 1-1h1v1l1-1 1 1v2zm4 32h0zm8 79l2-1h4l-6 1zM99 398v-1 1zm-1-1zm8 49l-1 1-1-1h1v-1h-1l1-1v1h1v1zm-1-8v0zm0 10h1v3l1 1v4 1h-2-1l1-2h-1v-1-1-1l1-1v-1h-1v-1-1h1s-1 0 0 0zm-1-9v-1 1zm0 3h1-1l1-1-1 1zm0-2l-1-1h1v1zm1 4h-1 1zm2 17v-1 1zm0-3h-1v-1l1 1zm0 3h-1l-1-1h1v-1h1v2zm3 25v-1h1l-1 1zm-1 2h0zm0 2l1 2v6l-1 1v3h1l-1 1-1-1h1l-1-1v-4l-1-3v-2-1l2-1zm-1-1h1-1zm-10-50h-1v-1l1-2v0l1 1-1 2zm1 5v3l-1-1v-1-1s1 0 0 0v-1-2h1v3zm-2-8h0zm13 70l-1-1h1v1zm-10-47l1 3v1h-1 1v2l1 4v5h-1l-2-5v-2h1v-2l-1-2v-1-1-2h1c1 0 0 0 0 0zm-1-10zm7 51l2-1-2 1zm-6-46h-1 1s-1 0 0 0zm4 39v-1c2 0 1 1 0 1zm1 6h-1v3l-1-1h-1v-1h1v-1-3h1v2l1 1zm0 8v1h-1v-1l-1-4h1l1 1v3zm-6-10h1v1l-1-1zm-2 4l1-1-1 1zm-4 4l1-1-1 1zm3 23h0zm-5-21v-1h1l-1 1zm-1 1l-3 3v-1s0 1 0 0l2-2h1zm-4 4l1-1-1 1zm0 1v-1 1zm-8 7h0z"/><path d="M120 477v1l1-2-1 1zM150 446h-1v1l1-1zM101 411l-1 1h1v-1zM89 361l-1 1 1-1zM67 531l-1 1 1-1z"/></g><g clip-rule="evenodd" fill="#97bf0d" fill-rule="evenodd"><path d="M562 506h-2l2-1v1zM560 507zM556 508h-1 1zM550 510l-1 1 1-1zM549 509v1l-1-1h1zM545 509zM542 510zM541 511v1-1zM541 512c1 1 0 1 0 0zM455 540h-1 1zM444 546h-1 1zM458 539l-3 1 3-1zM444 545c-1 0 0 0 0 0zM387 576h1-1z"/><path d="M536 512l2 1 1-1h1v1h1l1-1-1-1h2v1l1-1v-1l-1 1 1-1 1-1-1 1 1 1h2v-1h1v1h3v1l2-1 2-1h2v-1h-1l1-1s0 1 0 0h2-1-1l1-1h1v1l2-1 2-1 3-1 3 1-1 1-3 1-1 1h1v1s0-1 0 0l3-1 2-1v2l-2 2v1l-2 1-2 1-7 4h-1l-2 1-10 4-2 1-3 1-5 2-11 4-2 1-3 1-9 3-5 2-5 1-3 2-5 1v1l-16 5c-2 2-5 2-7 3l-5 2h-1l-5 2-4 2h-1l-5 2-3 1-1 1-35 13h-2l-9 1-6 1c0-1-2 0-1 1h1l-1 1-1-1-3-1v-1l1 1h1l1 1c0-2 1-2 2-3l1-1 2-3 1-1 3-3 2-2 1-1h1l1-1 2-1 7-4 3-2 3-1a88 88 0 0 0 11-5l16-7v1l-3 2v-1 1h-1v1l1-1h3v-1h2l2-1v-1l1-1-1 1s0-1 0 0v-1l4-1h-1 3l-1 1h-1l-1 1 3-1 2-1c1 1 2 0 2-1v-1l4-1-4 1 3-1 2-1v-1l17-6h3l6-3 4-1 5-2 2-1 3-1 3-1 2-1 3-1 7-2 10-3 6-2 3-1h3-2l-1 1h-2zm28-2l-2 1-1 1 2-1h1l1-1h-1zm-4 2zm-2 0h1l1-1-2 1zm1 1v-1 1zm-1 0h1-1zm-1 0v-1h-1-1v1h-1l-2 1c1 0 0 0 0 0h1l-1 1v-1l-1 1s1 0 0 0v1l2-1 1-1h3l1-1h-1zm-3-3l1 1-1-1zm-5 6h-1l2-1-1 1zm-3-5v1l1-1h-1zm-1 0h1-1zm-2 1v1l1-1h-1zm-8 2h-1v1h1l1-1h2l1-1v1l1-1h-1l-3 1v-1 1h-1zm2 1h1-1zm-1-1v0zm-5 0h0c1 0 0 0 0 0zm0 0v0zm-9 3h2v-1l-2 1zm-2 1c1 0 0 0 0 0h0zm0 2zm0-2h-1l1 1v-1zm-3 0h0zm-5 2h1-1zm0 1zm-1 0v-1 1zm-4 1h3v-1l-3 1zm-3 1h-2v1h-1v0l-1 1 3-1h1l-1-1h4-3zm1 1zm-7 2h-1l1 1v-1-1 1zm-3 0c0 1-2 0-2 2l1-1 2-1h1-2zm-2 8zm-3-5l1-1-1 1zm-8 2v0zm-5 2l-1 1 3-1 2-1-4 1zm-2 1s0-1 0 0zm-4 1h1c1 0 3 0 2-1l-3 1zm-1 1l1-1-1 1zm-3 0l-1 1h1l1-1 1-1-2 1zm-16 7h1-1zm-2 2v-1 1zm-3 0v0zm-7 1h0zm-1 2l2-1-2 1zm1-2v0zm-3 2h2-2zm-1 1h1v-1l-1 1zm-1 0s0 1 0 0zm-2 1h0zm-10 15h0zm-2-10h0zm-1 0v0zm-2 9zm-2-7h1v-1l-1 1zm-1 1l1-1-1 1zm-1 0l-1 1h1v-1zm-4 2l1-1-1 1zm-1 0v1l1-1h-1zm-2 2v1l1-1h1-2s1 0 0 0zm1 6zm-2-5h1c-1 0 0 0 0 0h-1zm-4 2c0 1 0 0 0 0z"/></g><path d="M164 530h-3l2-1c0-3-3-2-4-3h-6l-34 11-8 4-17 6-1 1-7 2-6 3-2 1-1 1-2 1-2 1-2 1h-1l-1 1-1 1-2 2-2 1-4 2-1 1h-1l-3 1-1 2v1l1 2 1 1 1-3-1 1 2-2v-1l2 1h16l8-2h1l9-3 2-1v-1l1 1 3-1v-1 1l15-6h1l7-3 5-2 3-1h1l1-1 4-2 3-1h1l11-5 7-4 2-2 2-2h-1l1-1 1-2zm-12 8v-1h1l-1 1zm-29 14h1-1zm-6 3zm-1 0c1 0 0 0 0 0zm-1 1h-1 1zm-8 3s0-1 0 0zm-24-2h-1 1zm-6 3v-1 1z" clip-rule="evenodd" fill="#97bf0d" fill-rule="evenodd"/><g clip-rule="evenodd" fill="#97bf0d" fill-rule="evenodd"><path d="M34 264h1v-1l-1 1zM60 286v-1 1zM60 284s-1 0 0 0zM154 374l-1-1v1h-2l3 3v-3z"/><path d="M141 361l-16-15-5-5h-1c-1-3-3-4-5-6l-3-3-5-4-4-5-1-1-8-7-15-17-6-6s1 0 0 0l-8-9-3-5-6-6-3-4-6-7-5-7-6-6-8-10c0-2-2-3-3-4l-3-4h-1l-1 1c1 0 0 0 0 0h1l1 1v1l1 1 1 2h1l3 5 2 2 2 3 2 3 3 4v1c2 0 2 3 4 3l1 2v1l2 2h1l1 2 4 4v2c1-1 2 1 2 1v1l2 2 3 3v1l1 1 2 2-1 1h1l1 1v1c1-1 2 1 2 1v1l3 2 2 2v1l1 1 1 1 1 1 1 1 3 4 4 4 1 1h1l1 2 2 3 1 1 1 1 3 2v1l2 2 1 1h1l1 2 2 1 2 2 1 1 2 3 1 1v1h2c0 2 2 3 3 4l2 2 2 1 1 2c1-1 1 1 2 1l1 1 2 1v2h2l1 2 3 2h-1l1 1 1 1 2 2c1-1 1 1 1 1l2 1 1 1v1h1s-1 0 0 0l4 3v1l1 1 2 1 2 2c1-1 2 1 2 2l1 1 2 3h-1l-1-1-2-2-3-2-2-2-3-2-1-1-2-2-2-1c-1-1-3-2-3-4h-1l-1-1v-2h-3l-1-1-1-1v-1c-2 0-3-1-3-3h-1l-1-1-1-1v-1l-3-1v-1l-1-1-2-1h-1l-1-3c-1 1-1-1-2-1h-1l-2-3-2-3-2-1-2-2-1-1-3-3-3-3v-1l-2-2-1-1h-1l-1-1v-1c-1 1-1 0-2-1v-1l-2-1v-1l-6-6-1-2-1-1h-1l-1-2-4-4v-1l-2-1-1-3-2-2-4-4v-1l-2-2-2-2-1-2h-1l-2-3c0-2-2-2-2-3l-2-2c1 0 0 0 0 0v-1-1-1h-1l-2-1-1-1-1-1v-2l-1-1h-1l-4-5-2-2-1-2-1-1-1-1-1-2-1-2v-1l-2-1v-1l-2-2-1-2-2-2-1-2v-1h-1v-1-1h1v1h2v1h1l-1-1-1-1 1-1h-1v-1h-3v-1l-3 1v2l-1-1v5l1-1v1H9l1 1 1 2v1l1 2v2l3 4 1 2 1 2 4 6 1 1v1h1l5 8 3 4 5 6 1 1 5 7 3 4 1 2 2 2 12 14 1 1 1 1 2 2 2 2 2 3 1 1 4 4 1 1 2 2 1 1 2 2 5 5 3 2v1l1 1 3 3 7 6 3 4h1l3 2 1 2h1v1l2 1 2 2 1 1h1v1l2 2 3 2 10 8 3 1v1l4 2 2 1 3 2h2l3 1v-1h-1l-4-2-3-2h-1l-1-1-2-2c-2 0-3-2-4-3h-1l-2-2-1-1-2-1h-1l-1-2-4-2v-1l-3-2-3-3-2-2-1-1h-1l-2-2-2-2-1-2-1-1-4-3-4-4-1-1-2-2-2-2-1-1-2-2-1-1h-1l-1-2-2-2h-1v-1l-2-2-3-3-2-2-4-4-2-4-2-1-1-2-3-3h-1l-3-4-2-2-1-1-2-4h-1c0-1-2-1-2-3l-2-3-1-2-1-1h-1c1-1-1-2-1-3l-2-2h-1 1l-3-4-2-2-1-2-1-1v-2h-2l-1-1-1-3-2-1-2-3-1-2h1l-2-1-2-4-3-3v-1l-2-1-2-4-2-4v-2-1s1 0 0 0l-1-1 1-1h1v2h1-1l1 1 1 2s1 0 0 0c1 1 2 2 1 3 1 1 2 1 1 2h1l3 4 2 3 2 3 2 3 1 1v1h1l3 4 2 2 1 2 1 2h1v1l1 1 3 3h-1l1 1 2 2 1 1 4 5 5 6v2l2 2 1 1 2 2 2 3 2 2 2 1v1l3 3 1 1v1l2 2 1 1v1l2 1 4 4 2 3h1v1h1v1l2 2c1 0 0 0 0 0l2 2 1 1 1 1h1v1l1 1 2 2 1 1 2 2 1 1 3 2 1 2h1v1l6 6h1v1h1l2 2 1 1h2v3h1l2 1 1 1c1 1 3 2 3 4h2l1 2 2 1 3 2v1l1 1 5 3s-1 0 0 0c0 0 1 2 2 1l-2-1h2l2 2h1l-1 2 2 1v-1c0 1 0 0 0 0h1v1h-1l2 2 1-1 1 1c2 1 3 3 5 3v0h1v-1l-8-11-1-1zM11 227l-1-1h1l1 1h-1zm104 120v-1h1l-1 1zm29 21l1 1h-1v-1z"/></g><text transform="matrix(2.6688 -.32953 .31722 2.73916 -917 -272)" y="325" x="414" style="line-height:125%;-inkscape-font-specification:Delicious" font-weight="400" font-size="16" font-family="Delicious" letter-spacing="0" word-spacing="0" fill="#97bf0d"><tspan style="-inkscape-font-specification:'Delicious Bold'" y="325" x="414" font-weight="700" font-size="8">8052 Zürich</tspan></text></svg>