<svg xmlns="http://www.w3.org/2000/svg" viewBox="0 0 512 512"><path fill="#e2e5e7" d="M128 0c-17.6 0-32 14.4-32 32v448c0 17.6 14.4 32 32 32h320c17.6 0 32-14.4 32-32V128L352 0H128z"/><path fill="#b0b7bd" d="M384 128h96L352 0v96c0 17.6 14.4 32 32 32z"/><path fill="#cad1d8" d="M480 224l-96-96h96z"/><path fill="#f15642" d="M416 416c0 8.8-7.2 16-16 16H48c-8.8 0-16-7.2-16-16V256c0-8.8 7.2-16 16-16h352c8.8 0 16 7.2 16 16v160z"/><g fill="#fff"><path d="M101.74 303.15c0-4.22 3.33-8.83 8.7-8.83h29.54c16.64 0 31.62 11.14 31.62 32.48 0 20.22-14.98 31.49-31.62 31.49h-21.36v16.9c0 5.63-3.58 8.81-8.19 8.81a8.62 8.62 0 0 1-8.69-8.82v-72.03zm16.88 7.28v31.87h21.36c8.58 0 15.36-7.56 15.36-15.5 0-8.94-6.78-16.37-15.36-16.37h-21.36zM196.66 384c-4.23 0-8.84-2.3-8.84-7.92v-72.67c0-4.6 4.61-7.94 8.84-7.94h29.3c58.46 0 57.18 88.53 1.14 88.53h-30.44zm8.06-72.91v57.31h21.23c34.55 0 36.08-57.31 0-57.31h-21.23zM303.87 312.11v20.34h32.63c4.6 0 9.21 4.6 9.21 9.07 0 4.22-4.6 7.68-9.21 7.68h-32.63v26.86c0 4.48-3.18 7.92-7.66 7.92-5.63 0-9.07-3.44-9.07-7.92V303.4c0-4.59 3.45-7.93 9.07-7.93h44.91c5.63 0 8.96 3.34 8.96 7.93 0 4.1-3.33 8.7-8.96 8.7h-37.25v.02z"/></g><path fill="#cad1d8" d="M400 432H96v16h304c8.8 0 16-7.2 16-16v-16c0 8.8-7.2 16-16 16z"/></svg>