<svg xmlns="http://www.w3.org/2000/svg" xmlns:xlink="http://www.w3.org/1999/xlink" id="svg8" width="107" height="26" viewBox="0 0 28.31 6.88"><defs id="defs2"><clipPath id="clipPath4661"><path id="path4659" d="M0 243.98h243.99V0H0z"/></clipPath><linearGradient id="b"><stop id="stop4729" offset="0" stop-color="#3771c8"/><stop id="stop4731" offset=".13" stop-color="#3771c8"/><stop id="stop4733" offset="1" stop-color="#60f" stop-opacity="0"/></linearGradient><linearGradient id="a"><stop id="stop4736" offset="0" stop-color="#fd5"/><stop id="stop4738" offset=".1" stop-color="#fd5"/><stop id="stop4740" offset=".5" stop-color="#ff543e"/><stop id="stop4742" offset="1" stop-color="#c837ab"/></linearGradient><radialGradient id="c" cx="158.43" cy="578.09" r="65" fx="158.43" fy="578.09" gradientTransform="matrix(0 -1.98198 1.8439 0 -1031.4 454)" gradientUnits="userSpaceOnUse" xlink:href="#a"/><radialGradient id="d" cx="147.69" cy="473.45" r="65" fx="147.69" fy="473.45" gradientTransform="matrix(.17394 .86872 -3.5818 .71718 1648.35 -458.5)" gradientUnits="userSpaceOnUse" xlink:href="#b"/></defs><g id="layer1" transform="translate(0 -290.12)"><path id="path830" stroke-width=".19" d="M-6.52 281.65v-.55H.52v1.11h-7.04zm0-1.85v-.55H.52v1.11h-7.04zm0-1.85v-.55H.52v1.11h-7.04z"/><path id="path4576" fill="#96bf18" stroke-width=".26" d="M2.1 312.68l-.46-.03-.59-.12-.58-.11-.76-.75-.75-.76-.17-.83-.16-.83.16-.7.16-.69.8-.85.8-.85.86-.16.85-.16.9.3.9.3.6.63.6.64.1 1.26.12 1.25-.55.87-.54.87-.9.38-.91.38zm-.63-1.54h.62l.89-.89.9-.9.01-.48.02-.48.08-.4.08-.39-.76-.06-.76-.05-.32.51-.32.52h-.68l-.68-.45-.68-.44.15.5.15.52.18.72.17.72h.47v.53H.07l.4.26.38.25h.62zm7.74 1.57l-.75-.01-.83-.37-.83-.36-.39-.61-.39-.61-.18-.86-.17-.85.56-1.17.56-1.16 1.15-.44 1.15-.43 1.1.35 1.11.36.5.68.5.68.15 1.05.14 1.06-.44.93-.45.94-.87.41-.87.42zM8.54 311l.45-.8.44.1.44.09.55-.54.54-.54v-1.14l-.44-.48-.43-.48H8.37l-.54.68-.54.68.27.5.27.5H8l-.12-.62-.12-.61.44-.44.43-.43h1.29l.28.62.29.62-.3.56-.3.56h-.83l.12-.64.12-.64-.2-.34-.21-.33-.13.38-.12.39-.28 1.23-.29 1.23.01.35.01.34.45-.8zm7.4 1.7h-.4l-.78-.35-.79-.35-.52-.59-.53-.59v-3.05l.64-.68.64-.68 1-.3 1-.3 1.04.31 1.04.31.58.83.6.83v2.44l-.6.82-.58.82-.97.27-.98.27zm.13-1.3h.4v-1.87l.44-.44.44-.44-.44-.08-.44-.09v-.8l.39.15.4.15v-.8l-.73.08-.72.08-.08.59-.09.59h-.49v.79h.53v2.09zm7 1.31h-.7l-.83-.42-.84-.4-.41-.88-.41-.87v-1.8l.6-.9.6-.89 1.04-.35 1.04-.34 1 .3 1 .29.49.5.5.5.27 1 .27 1.02-.25.87-.25.88-.53.5-.52.48-.68.26-.68.26zm1.99-1.4l.33-.23v-3.28l-.37-.31-.37-.3-1.67.07-1.66.08-.13 1.5-.14 1.52.16.46.16.45 1.68.14 1.68.13zm-1.85-.22l-1.78.08.07-1.79.08-1.78 1.63-.08 1.64-.08.15.63.16.62-.08 1.16-.09 1.16zm.47-.86l.53-.33.08-.44.09-.44-.32-.38-.31-.38h-.91l-.45.5-.46.5.28.53.28.52.34.12.33.13zm-.4-.14h-.53l-.15-.4-.16-.38.16-.4.15-.4h.74l.32.4.32.39-.15.4-.15.4zm1.19-1.83h.13v-.27h-.26v.27z"/><path id="path4574" stroke-width=".35" d="M6.87 276.57c-1.14-.22-2.78-2-3.04-3.3-.32-1.6.06-2.82 1.3-4.12a4.33 4.33 0 0 1 7.54 2.63c.29 3.37-2.26 5.47-5.8 4.79zm2.59-3.07c.66-.66 1.2-1.5 1.22-1.85.02-.36.08-.9.14-1.18.16-.85-1.84-.84-2.37.01s-1.07.87-2.26.1c-.88-.58-.91-.58-.71.08l.44 1.66c.12.53.37.97.54.97.17 0 .32.16.32.35 0 .2-.28.36-.62.36-.53 0-.54.06-.09.35 1.01.65 2.18.36 3.39-.85zm6.25 2.8c-3.44-1.5-3.17-6.78.41-8.14 2.9-1.11 5.65.52 6.07 3.61.49 3.66-2.95 6.07-6.48 4.53zm2.42-2.74c.79.17 2.05-1.13 2.05-2.1 0-2.05-2.87-2.82-4.2-1.13-.55.7-.64 1.07-.36 1.59.47.89.62.84.42-.16-.34-1.8 2.38-2.8 3.13-1.16.45 1-.1 2.34-.98 2.34-.4 0-.51-.24-.4-.86.2-1.01-.29-2.1-.56-1.25a29.69 29.69 0 0 0-.91 4.3c0 .25.28-.03.61-.62.38-.68.83-1.03 1.2-.95zm7.17 2.76c-1.88-.82-2.47-1.82-2.47-4.1 0-1.69.15-2.21.86-2.96a4.92 4.92 0 0 1 4.94-1.3c3.96 1.18 4.03 7.4.1 8.49-1.67.46-2.14.45-3.43-.13zm2.29-2.53c0-.7.26-1.52.6-1.85.55-.55.55-.6 0-.7-.33-.07-.6-.36-.6-.66 0-.34.2-.46.53-.34.33.13.53 0 .53-.34 0-.92-1.92-.48-2.06.48-.06.44-.26.8-.44.8s-.32.23-.32.52c0 .3.15.53.35.53.2 0 .35.64.35 1.41 0 1.02.15 1.41.53 1.41.37 0 .53-.37.53-1.26zm6.82 2.46c-3.28-1.62-2.77-7 .78-8.19 2.6-.87 5.08.43 5.78 3.03 1.07 3.95-2.82 7-6.56 5.16zm5.17-3.84c0-2.78-.32-3.07-3.23-2.93l-2.23.1-.18 2.03c-.28 3.04-.13 3.24 2.5 3.44 1.25.1 2.46.04 2.7-.13.28-.19.44-1.15.44-2.51zm-5.22-.07l.1-2.4 2.2-.1c2.06-.1 2.21-.06 2.4.73.12.46.17 1.54.1 2.4l-.1 1.55-2.4.1-2.4.11zm3.75.1c.3-1.46-1.5-2.12-2.56-.94-.47.52-.53.83-.23 1.38.2.38.58.78.82.87.6.23 1.83-.59 1.97-1.31zm-2.28.32c-.28-.73.1-1.59.7-1.59.7 0 1.4.95 1.16 1.59-.26.69-1.6.69-1.86 0z"/><g id="g4617" fill="#96bf18" stroke-width="1.21" transform="translate(-.04)"><path id="path4582" d="M13.16.02A12.98 12.98 0 0 0 .18 13a12.98 12.98 0 0 0 12.98 12.98A12.98 12.98 0 0 0 26.14 13 12.98 12.98 0 0 0 13.16.02zm3.73 6.35a3.73 3.73 0 0 1 2.66 1.17 7.47 7.47 0 0 0 2.37-.9 3.74 3.74 0 0 1-1.64 2.06 7.44 7.44 0 0 0 2.14-.58 7.59 7.59 0 0 1-1.86 1.92l.01.49c0 4.93-3.75 10.6-10.6 10.6a10.56 10.56 0 0 1-5.73-1.67 7.6 7.6 0 0 0 .9.06 7.48 7.48 0 0 0 4.62-1.6 3.73 3.73 0 0 1-3.48-2.6 3.72 3.72 0 0 0 1.68-.06 3.73 3.73 0 0 1-2.99-3.65v-.05a3.7 3.7 0 0 0 1.7.47A3.73 3.73 0 0 1 5.5 7.05a10.59 10.59 0 0 0 7.69 3.9 3.73 3.73 0 0 1 3.7-4.58z" transform="matrix(.26458 0 0 .26458 .04 290.12)"/><path id="path4582-3" d="M93.84.02A12.98 12.98 0 0 0 80.86 13a12.98 12.98 0 0 0 12.98 12.98A12.98 12.98 0 0 0 106.82 13 12.98 12.98 0 0 0 93.84.02zm.03 4.08c2.48 0 2.8 0 3.76.05.98.04 1.64.2 2.22.42.6.24 1.1.55 1.62 1.06.5.5.82 1.01 1.05 1.61.23.58.38 1.25.43 2.22.04.97.05 1.28.05 3.76 0 2.48-.01 2.79-.05 3.76-.05.97-.2 1.64-.43 2.22-.23.6-.55 1.1-1.05 1.61-.51.51-1.02.82-1.62 1.06a6.7 6.7 0 0 1-2.21.42c-.98.05-1.29.06-3.77.06a64.9 64.9 0 0 1-3.76-.06 6.7 6.7 0 0 1-2.21-.42 4.48 4.48 0 0 1-1.62-1.06c-.5-.5-.82-1.01-1.05-1.61a6.7 6.7 0 0 1-.43-2.22c-.04-.97-.05-1.28-.05-3.76 0-2.48.01-2.79.05-3.76.05-.97.2-1.64.43-2.22.23-.6.55-1.1 1.05-1.61.51-.51 1.02-.82 1.62-1.06a6.7 6.7 0 0 1 2.21-.42c.98-.04 1.29-.05 3.76-.05zm-.81 1.64c-1.7 0-2.03.01-2.87.05-.89.04-1.37.19-1.7.31-.42.17-.73.37-1.04.69-.32.32-.52.62-.69 1.05-.12.32-.27.8-.31 1.7-.05.95-.05 1.24-.05 3.68 0 2.43 0 2.72.05 3.68.04.9.19 1.38.31 1.7.17.42.37.73.69 1.05.31.32.62.51 1.04.68.33.12.81.27 1.7.31.96.05 1.25.06 3.69.06 2.43 0 2.72-.01 3.68-.06a5.04 5.04 0 0 0 1.7-.31c.42-.17.73-.36 1.05-.68.32-.32.51-.63.68-1.05.12-.32.27-.8.31-1.7.05-.96.06-1.25.06-3.68 0-2.44-.01-2.72-.06-3.69a5.05 5.05 0 0 0-.31-1.7 2.83 2.83 0 0 0-.68-1.04 2.82 2.82 0 0 0-1.05-.68c-.32-.13-.8-.28-1.7-.32-.96-.04-1.25-.05-3.68-.05h-.82zm5.69 1.52a1.1 1.1 0 1 1 0 2.19 1.1 1.1 0 0 1 0-2.2zm-4.88 1.28a4.69 4.69 0 1 1 0 9.37 4.69 4.69 0 0 1 0-9.37zm0 1.64a3.04 3.04 0 1 0 0 6.08 3.04 3.04 0 0 0 0-6.08z" transform="matrix(.26458 0 0 .26458 .04 290.12)"/><path id="path4582-9" d="M66.95.02A12.98 12.98 0 0 0 53.97 13a12.98 12.98 0 0 0 12.98 12.98A12.98 12.98 0 0 0 79.93 13 12.98 12.98 0 0 0 66.95.02zm2.73 2.88a28.38 28.38 0 0 1 2.98.15v3.47h-2.05c-1.61 0-1.92.76-1.92 1.88v2.47h3.84l-.5 3.88H68.7v9.92H64.7v-9.92h-3.34v-3.88h3.34V8.02c0-3.32 2.01-5.12 4.97-5.12z" transform="matrix(.26458 0 0 .26458 .04 290.12)"/></g><g id="g4637" transform="matrix(.01924 0 0 .01924 -.32 289.91)"><path id="rect4625" fill="none" d="M0 0h400v400H0z"/></g><path id="path4669" fill="#96bf18" stroke-width=".03" d="M10.6 290.12a3.43 3.43 0 0 0-1.25 6.63 3.3 3.3 0 0 1 .01-.99l.4-1.7s-.1-.2-.1-.51c0-.48.28-.84.62-.84.3 0 .44.22.44.49 0 .3-.2.73-.29 1.14-.08.34.17.62.51.62.61 0 1.08-.64 1.08-1.57 0-.82-.6-1.4-1.44-1.4-.97 0-1.55.73-1.55 1.5 0 .29.12.6.26.77a.1.1 0 0 1 .02.1l-.1.4c0 .06-.04.07-.1.04-.44-.2-.7-.83-.7-1.33 0-1.09.78-2.08 2.27-2.08 1.19 0 2.11.85 2.11 1.98 0 1.19-.74 2.14-1.78 2.14-.35 0-.67-.18-.79-.4l-.21.82c-.08.3-.29.67-.43.9a3.43 3.43 0 1 0 1.02-6.71"/></g></svg>